PathFileType	4	(X/Y/Z)	C:/Users/beibeiliu/ov580/test_trc\sequence.20_training_dense_right.trc
DataRate	CameraRate	NumFrames	NumMarkers	Units	OrigDataRate	OrigDataStartFrame	OrigNumFrames
120	120	8	19	mm	120	127	336
Frame#	Time	ThumbCMC			ThumbMCP			ThumbIP			ThumbTip			IndexMCP			IndexPIP			IndexTip			MiddleMCP			MiddlePIP			MiddleTip			RingMCP			RingPIP			RingTip			PinkyMCP			PinkyPIP			PinkyTip			BackHand1			BackHand2			BackHand3	
		X0	Y0	Z0	X1	Y1	Z1	X2	Y2	Z2	X3	Y3	Z3	X4	Y4	Z4	X5	Y5	Z5	X6	Y6	Z6	X7	Y7	Z7	X8	Y8	Z8	X9	Y9	Z9	X10	Y10	Z10	X11	Y11	Z11	X12	Y12	Z12	X13	Y13	Z13	X14	Y14	Z14	X15	Y15	Z15	X16	Y16	Z16	X17	Y17	Z17	X18	Y18	Z18	
126	1.05	215.489	85.7884	72.9763	207.188	103.005	48.0463	208.003	115.369	27.321	208.695	119.698	7.45486	266.779	102.95	39.6173	271.21	115.746	13.1878	260.175	125.892	-6.72572	274.355	81.7315	22.7666	279.177	95.6391	-1.56489	264.064	107.371	-23.2457	266.72	63.5161	16.2631	271.572	77.021	-4.09995	260.698	91.9553	-22.9825	250.547	46.1467	17.5744	260.113	50.2858	-2.28118	264.204	64.919	-18.6943	245.832	48.2435	53.9424	230.58	34.0442	71.8804	243.667	64.7793	76.7548	
127	1.05833	214.071	87.6538	73.9442	208.216	102.209	45.884	205.675	113.921	28.3281	208.17	121.583	6.61269	266.235	103.532	38.7111	270.461	122.829	18.1254	259.028	133.214	-3.69479	274.102	87.7702	28.8574	279.564	99.5743	0.833261	264.433	113.398	-20.9777	268.083	70.1134	21.9214	273.934	81.9794	-4.43988	263.284	93.6604	-19.5359	258.043	47.9675	17.4938	265.787	56.9609	-1.12046	268.331	67.7741	-18.0434	246.403	49.1637	53.3184	228.291	38.2797	76.0736	238.407	63.9819	77.6693	
128	1.06667	209.654	89.8165	76.3964	203.631	102.341	49.2762	205.544	113.847	27.4039	207.614	124.047	4.07128	265.347	109.319	43.3831	270.172	121.049	22.8171	260.42	133.041	1.14743	272.041	89.5552	33.3358	281.926	106.139	7.04092	266.479	117.626	-17.5809	271.307	74.3317	25.2018	276.931	87.0648	1.70567	264.945	101.236	-15.4476	260.275	50.623	20.2577	270.03	60.1485	7.54305	271.721	73.5089	-8.38081	247.364	52.113	54.9325	232.461	37.6067	75.5312	236.868	66.0597	79.9375	
129	1.075	209.404	87.6011	73.0015	203.621	103.684	46.6676	203.104	116.536	27.2899	205.195	123.316	5.70781	265.179	110.922	43.6384	268.533	127.082	27.1732	260.059	136.285	3.92622	275.552	95.4373	36.3413	283.1	107.757	10.6964	268.686	122.779	-12.3655	270.68	76.5338	30.1733	279.406	87.853	9.73859	268.515	103.228	-12.114	259.423	56.4268	27.9782	273.491	63.2552	7.06279	275.233	75.6975	-8.99359	246.686	53.933	59.4727	228.96	40.7497	78.3706	236.702	69.5922	82.781	
130	1.08333	204.517	84.6944	74.7141	199.248	104.658	45.1147	203.712	113.711	24.9432	206.571	118.926	4.86686	258.953	114.381	51.0614	263.404	132.186	33.1732	259.591	138.403	8.0641	274.585	97.354	39.5535	281.617	114.583	17.5373	272.443	124.542	-5.12703	272.217	79.9408	34.6727	280.741	95.9785	14.8872	272.208	109.815	-5.85487	264.92	62.5989	31.8833	276.772	67.4195	17.5725	282.82	83.6782	-0.243971	247.352	58.0492	64.6374	231.602	38.5878	77.1354	233.779	70.2312	82.7358	
131	1.09167	202.386	83.3367	72.6027	194.098	97.7152	47.2273	198.416	112.764	24.2326	203.916	118.052	6.08065	249.804	119.322	58.3767	258.832	135.75	39.2396	252.659	146.305	15.4547	267.467	101.16	48.341	279.382	121.337	24.6331	272.981	128.489	-2.56627	270.062	84.1187	41.7657	281.275	102.034	23.6816	273.768	113.874	0.317349	267.28	65.1274	37.8089	280.315	77.3206	22.6254	286.907	88.431	8.30333	244.811	59.288	68.1324	235.731	43.4398	80.6871	232.315	72.3976	84.7376	
132	1.1	193.267	79.7298	74.4133	189.584	95.7693	46.6546	195.801	111.233	24.9204	204.797	114.599	6.88093	246.466	117.63	59.2884	254.51	136.544	41.7146	247.405	151.311	15.5175	262.711	108.529	55.3087	276.694	126.57	31.5532	273.252	134.096	6.63552	269.649	90.3533	46.776	279.369	107.279	32.0464	272.5	121.296	8.92439	266.71	67.3119	42.4123	281.804	84.0971	28.5628	284.61	96.1938	15.3426	247.275	59.285	71.6055	234.316	39.7498	81.8526	226.057	70.0915	89.783	
133	1.10833	191.494	76.8901	73.4652	193.259	93.1334	43.6425	195.815	104.163	26.7208	203.341	113.045	6.8294	239.822	124.324	62.5983	246.23	141.953	43.9692	246.012	150.369	17.1534	262.607	110.182	54.3757	269.98	130.525	39.7207	270.489	138.819	9.82892	268.061	92.1323	49.6351	278.93	109.804	33.3245	274.873	121.354	11.441	271.362	70.8293	43.88	284.37	86.0285	30.2693	284.991	99.6549	20.2887	246.163	62.7506	71.2111	234.655	46.8656	84.9053	223.513	72.3579	88.6793	
